<svg xmlns="http://www.w3.org/2000/svg" width="960" height="410" viewBox="0 0 960 410" role="img" aria-labelledby="title desc">
  <title id="title">Ontahi ceibo symbol specimen</title>
  <desc id="desc">A focused specimen isolating the Ontahi ceibo symbol in color, monochrome, line and small-size forms.</desc>
  <defs>
    <style>
      .eyebrow{font:12px Inter,system-ui,sans-serif;letter-spacing:3px;fill:#465538}
      .title{font:36px Georgia,serif;fill:#162018}
      .label{font:16px Inter,system-ui,sans-serif;fill:#162018}
      .caption{font:13px Inter,system-ui,sans-serif;fill:#465538}
    </style>
    <g id="ceibo" fill="none" stroke-linecap="round" stroke-linejoin="round">
      <path d="M61 71c-7 13-9 25-4 38" stroke="var(--stem,#465538)" stroke-width="7"/>
      <path d="M56 84c-15-8-26-4-34 11 14 3 26-1 34-11Z" fill="var(--leaf,#7A7F52)"/>
      <path d="M63 77c14 0 24 7 30 21-15 0-25-7-30-21Z" fill="var(--leaf2,#98A16B)"/>
      <path d="M62 66c-18-2-31-12-38-29 19-1 32 9 38 29Z" fill="var(--petal,#D94C43)"/>
      <path d="M66 60c-9-17-8-34 3-49 13 15 12 32-3 49Z" fill="var(--petal2,#E06A61)"/>
      <path d="M72 62c8-16 22-24 40-24-6 18-19 27-40 24Z" fill="var(--petal,#D94C43)"/>
      <path d="M70 70c16 3 28 14 35 31-19 0-31-10-35-31Z" fill="var(--petal2,#E06A61)"/>
      <path d="M56 63c-15 8-30 8-45 0 12-13 28-13 45 0Z" fill="var(--petal,#D94C43)"/>
      <circle cx="64" cy="66" r="7" fill="var(--center,#F6F2EB)" stroke="var(--petal,#D94C43)" stroke-width="3"/>
    </g>
    <g id="ceiboLine" fill="none" stroke="#465538" stroke-width="5" stroke-linecap="round" stroke-linejoin="round">
      <path d="M61 71c-7 13-9 25-4 38"/>
      <path d="M56 84c-15-8-26-4-34 11 14 3 26-1 34-11Z"/>
      <path d="M63 77c14 0 24 7 30 21-15 0-25-7-30-21Z"/>
      <path d="M62 66c-18-2-31-12-38-29 19-1 32 9 38 29Z"/>
      <path d="M66 60c-9-17-8-34 3-49 13 15 12 32-3 49Z"/>
      <path d="M72 62c8-16 22-24 40-24-6 18-19 27-40 24Z"/>
      <path d="M70 70c16 3 28 14 35 31-19 0-31-10-35-31Z"/>
      <path d="M56 63c-15 8-30 8-45 0 12-13 28-13 45 0Z"/>
      <circle cx="64" cy="66" r="7"/>
    </g>
  </defs>
  <rect width="960" height="410" rx="18" fill="#F6F2EB"/>

  <rect x="64" y="64" width="320" height="320" rx="14" fill="#FFFCF6" stroke="#D9D1C0"/>
  <g transform="translate(132 96) scale(1.42)">
    <use href="#ceibo"/>
  </g>
  <rect x="432" y="64" width="184" height="184" rx="14" fill="#FFFCF6" stroke="#D9D1C0"/>
  <g transform="translate(462 92) scale(.95)" style="--petal:#162018;--petal2:#162018;--leaf:#162018;--leaf2:#162018;--stem:#162018;--center:#F6F2EB">
    <use href="#ceibo"/>
  </g>
  <rect x="672" y="64" width="184" height="184" rx="14" fill="#FFFCF6" stroke="#D9D1C0"/>
  <g transform="translate(704 93) scale(.92)">
    <use href="#ceiboLine"/>
  </g>
  <rect x="432" y="314" width="424" height="70" rx="14" fill="#FFFCF6" stroke="#D9D1C0"/>
  <g transform="translate(464 329) scale(.34)">
    <use href="#ceibo"/>
  </g>
  <g transform="translate(536 334) scale(.26)">
    <use href="#ceibo"/>
  </g>
  <g transform="translate(594 338) scale(.2)">
    <use href="#ceibo"/>
  </g>
</svg>
