<svg xmlns="http://www.w3.org/2000/svg" width="960" height="330" viewBox="0 0 960 330" role="img" aria-labelledby="title desc">
  <title id="title">Ontahi extended palette specimen</title>
  <desc id="desc">A clean tonal palette specimen showing Forest, Olive, Ceibo and Paper families across dark, base and light values.</desc>
  <defs>
    <style>
      .eyebrow{font:12px Inter,system-ui,sans-serif;letter-spacing:3px;fill:#465538}
      .title{font:34px Georgia,serif;fill:#162018}
      .subtitle{font:14px Inter,system-ui,sans-serif;fill:#465538}
      .label{font:15px Inter,system-ui,sans-serif;fill:#162018}
      .muted{font:12px Inter,system-ui,sans-serif;fill:#465538}
      .code{font:12px ui-monospace,SFMono-Regular,Menlo,monospace;fill:#465538}
    </style>
  </defs>
  <rect width="960" height="330" rx="18" fill="#F6F2EB"/>

  <g transform="translate(140 44)">
    <rect x="176" y="0" width="142" height="40" rx="8" fill="#162018"/>
    <rect x="356" y="0" width="142" height="40" rx="8" fill="#1F2A24"/>
    <rect x="536" y="0" width="142" height="40" rx="8" fill="#2B382E"/>
  </g>

  <g transform="translate(140 110)">
    <rect x="176" y="0" width="142" height="40" rx="8" fill="#465538"/>
    <rect x="356" y="0" width="142" height="40" rx="8" fill="#7A7F52"/>
    <rect x="536" y="0" width="142" height="40" rx="8" fill="#98A16B"/>
  </g>

  <g transform="translate(140 176)">
    <rect x="176" y="0" width="142" height="40" rx="8" fill="#D94C43"/>
    <rect x="356" y="0" width="142" height="40" rx="8" fill="#E06A61"/>
    <rect x="536" y="0" width="142" height="40" rx="8" fill="#F1B1AC"/>
  </g>

  <g transform="translate(140 242)">
    <rect x="176" y="0" width="142" height="40" rx="8" fill="#C2B7A4"/>
    <rect x="356" y="0" width="142" height="40" rx="8" fill="#E8E2D3" stroke="#D9D1C0"/>
    <rect x="536" y="0" width="142" height="40" rx="8" fill="#F6F2EB" stroke="#D9D1C0"/>
  </g>

</svg>
