<svg xmlns="http://www.w3.org/2000/svg" width="960" height="560" viewBox="0 0 960 560" role="img" aria-labelledby="title desc">
  <title id="title">Ontahi logo system specimen</title>
  <desc id="desc">A focused specimen showing the Ontahi primary lockup, symbol variants, wordmark and negative use.</desc>
  <defs>
    <style>
      .eyebrow{font:12px Inter,system-ui,sans-serif;letter-spacing:3px;fill:#465538}
      .label{font:15px Inter,system-ui,sans-serif;fill:#162018}
      .caption{font:13px Inter,system-ui,sans-serif;fill:#465538}
      .word{font:64px Georgia,serif;fill:#162018}
      .smallword{font:36px Georgia,serif;fill:#162018}
    </style>
    <g id="ceibo" fill="none" stroke-linecap="round" stroke-linejoin="round">
      <path d="M61 71c-7 13-9 25-4 38" stroke="var(--stem,#465538)" stroke-width="7"/>
      <path d="M56 84c-15-8-26-4-34 11 14 3 26-1 34-11Z" fill="var(--leaf,#7A7F52)"/>
      <path d="M63 77c14 0 24 7 30 21-15 0-25-7-30-21Z" fill="var(--leaf2,#98A16B)"/>
      <path d="M62 66c-18-2-31-12-38-29 19-1 32 9 38 29Z" fill="var(--petal,#D94C43)"/>
      <path d="M66 60c-9-17-8-34 3-49 13 15 12 32-3 49Z" fill="var(--petal2,#E06A61)"/>
      <path d="M72 62c8-16 22-24 40-24-6 18-19 27-40 24Z" fill="var(--petal,#D94C43)"/>
      <path d="M70 70c16 3 28 14 35 31-19 0-31-10-35-31Z" fill="var(--petal2,#E06A61)"/>
      <path d="M56 63c-15 8-30 8-45 0 12-13 28-13 45 0Z" fill="var(--petal,#D94C43)"/>
      <circle cx="64" cy="66" r="7" fill="var(--center,#F6F2EB)" stroke="var(--petal,#D94C43)" stroke-width="3"/>
    </g>
    <g id="ceiboLine" fill="none" stroke="#465538" stroke-width="5" stroke-linecap="round" stroke-linejoin="round">
      <path d="M61 71c-7 13-9 25-4 38"/>
      <path d="M56 84c-15-8-26-4-34 11 14 3 26-1 34-11Z"/>
      <path d="M63 77c14 0 24 7 30 21-15 0-25-7-30-21Z"/>
      <path d="M62 66c-18-2-31-12-38-29 19-1 32 9 38 29Z"/>
      <path d="M66 60c-9-17-8-34 3-49 13 15 12 32-3 49Z"/>
      <path d="M72 62c8-16 22-24 40-24-6 18-19 27-40 24Z"/>
      <path d="M70 70c16 3 28 14 35 31-19 0-31-10-35-31Z"/>
      <path d="M56 63c-15 8-30 8-45 0 12-13 28-13 45 0Z"/>
      <circle cx="64" cy="66" r="7"/>
    </g>
  </defs>
  <rect width="960" height="560" rx="18" fill="#F6F2EB"/>
  <text x="64" y="58" class="eyebrow">LOGO SYSTEM</text>

  <rect x="64" y="88" width="832" height="136" rx="14" fill="#FFFCF6" stroke="#D9D1C0"/>
  <g transform="translate(94 112) scale(.74)">
    <use href="#ceibo"/>
  </g>
  <text x="220" y="160" class="word">ontahí</text>
  <text x="226" y="194" font-family="Inter,system-ui,sans-serif" font-size="13" letter-spacing="6" fill="#D94C43">EXECUTABLE ONTOLOGY</text>

  <rect x="64" y="260" width="376" height="132" rx="14" fill="#FFFCF6" stroke="#D9D1C0"/>
  <g transform="translate(96 284) scale(.44)">
    <use href="#ceibo"/>
  </g>
  <text x="170" y="338" class="smallword">ontahí</text>
  <text x="96" y="370" class="caption">Horizontal lockup for documentation, decks and web headers.</text>

  <rect x="504" y="260" width="392" height="132" rx="14" fill="#FFFCF6" stroke="#D9D1C0"/>
  <g transform="translate(538 284)">
    <rect width="82" height="82" rx="14" fill="#F6F2EB" stroke="#D9D1C0"/>
    <g transform="translate(11 11) scale(.47)">
      <use href="#ceibo"/>
    </g>
    <text x="0" y="112" class="label">Symbol</text>
  </g>
  <g transform="translate(686 284)">
    <rect width="82" height="82" rx="14" fill="#162018"/>
    <g transform="translate(11 11) scale(.47)" style="--petal:#F6F2EB;--petal2:#E8E2D3;--leaf:#F6F2EB;--leaf2:#F6F2EB;--stem:#F6F2EB;--center:#162018">
      <use href="#ceibo"/>
    </g>
    <text x="0" y="112" class="label">Negative</text>
  </g>

  <rect x="64" y="428" width="376" height="78" rx="14" fill="#FFFCF6" stroke="#D9D1C0"/>
  <text x="96" y="460" class="eyebrow">WORDMARK</text>
  <text x="96" y="496" class="smallword">ontahí</text>
  <text x="240" y="496" font-family="Georgia,serif" font-size="36" font-style="italic" fill="#162018">ontahí</text>

  <rect x="504" y="428" width="392" height="78" rx="14" fill="#FFFCF6" stroke="#D9D1C0"/>
  <text x="536" y="460" class="eyebrow">LINE VARIANT</text>
  <g transform="translate(536 470) scale(.28)">
    <use href="#ceiboLine"/>
  </g>
  <text x="598" y="496" class="caption">For monochrome and small technical contexts.</text>
</svg>
